HIERARCHY
ROOT SpineBase
{
  OFFSET 0.000000 0.000000 0.000000
  CHANNELS 6 Xposition Yposition Zposition Zrotation Xrotation Yrotation
  JOINT SpineMid
  {
    OFFSET 0.000000 34.003718 0.000000
    CHANNELS 3 Zrotation Xrotation Yrotation
    JOINT SpineShoulder
    {
      OFFSET 0.709131 25.203257 -0.902490
      CHANNELS 3 Zrotation Xrotation Yrotation
      JOINT Neck
      {
        OFFSET 0.304939 8.313765 -0.586346
        CHANNELS 3 Zrotation Xrotation Yrotation
        JOINT Head
        {
          OFFSET 6.423943 10.754155 4.573127
          CHANNELS 3 Zrotation Xrotation Yrotation
          End Site
          {
            OFFSET 0 0 0
          }
        }
      }
      JOINT ShoulderLeft
      {
        OFFSET -6.730776 -1.847164 -11.244574
        CHANNELS 3 Zrotation Xrotation Yrotation
        JOINT ElbowLeft
        {
          OFFSET -3.423338 -21.293594 -9.825856
          CHANNELS 3 Zrotation Xrotation Yrotation
          JOINT WristLeft
          {
            OFFSET 4.541340 -26.186271 -3.798027
            CHANNELS 3 Zrotation Xrotation Yrotation
            JOINT HandLeft
            {
              OFFSET 2.416744 -8.315323 -0.324025
              CHANNELS 3 Zrotation Xrotation Yrotation
              JOINT HandTipLeft
              {
                OFFSET 1.775780 -6.392225 -0.318466
                CHANNELS 3 Zrotation Xrotation Yrotation
                End Site
                {
                  OFFSET 0 0 0
                }
              }
              JOINT ThumbLeft
              {
                OFFSET -1.468347 -1.374600 -2.190331
                CHANNELS 3 Zrotation Xrotation Yrotation
                End Site
                {
                  OFFSET 0 0 0
                }
              }
            }
          }
        }
      }
      JOINT ShoulderRight
      {
        OFFSET 5.280495 -7.780836 18.896359
        CHANNELS 3 Zrotation Xrotation Yrotation
        JOINT ElbowRight
        {
          OFFSET 0.362847 -26.483852 2.214696
          CHANNELS 3 Zrotation Xrotation Yrotation
          JOINT WristRight
          {
            OFFSET 1.631015 -26.633760 -2.252400
            CHANNELS 3 Zrotation Xrotation Yrotation
            JOINT HandRight
            {
              OFFSET -0.078501 -3.271791 0.657450
              CHANNELS 3 Zrotation Xrotation Yrotation
              JOINT HandTipRight
              {
                OFFSET 0.199962 -1.647479 -2.481974
                CHANNELS 3 Zrotation Xrotation Yrotation
                End Site
                {
                  OFFSET 0 0 0
                }
              }
              JOINT ThumbRight
              {
                OFFSET 0.546271 0.676558 -1.632711
                CHANNELS 3 Zrotation Xrotation Yrotation
                End Site
                {
                  OFFSET 0 0 0
                }
              }
            }
          }
        }
      }
    }
  }
  JOINT HipLeft
  {
    OFFSET -1.681040 2.561365 -10.427672
    CHANNELS 3 Zrotation Xrotation Yrotation
    JOINT KneeLeft
    {
      OFFSET -7.967761 -25.886316 -4.494008
      CHANNELS 3 Zrotation Xrotation Yrotation
      JOINT AnkleLeft
      {
        OFFSET -7.975059 -34.491919 1.345083
        CHANNELS 3 Zrotation Xrotation Yrotation
        JOINT FootLeft
        {
          OFFSET 10.332000 -4.205652 -7.353979
          CHANNELS 3 Zrotation Xrotation Yrotation
          End Site
          {
            OFFSET 0 0 0
          }
        }
      }
    }
  }
  JOINT HipRight
  {
    OFFSET 3.921935 -0.689014 3.176396
    CHANNELS 3 Zrotation Xrotation Yrotation
    JOINT KneeRight
    {
      OFFSET -6.721821 -27.648089 -6.133201
      CHANNELS 3 Zrotation Xrotation Yrotation
      JOINT AnkleRight
      {
        OFFSET -4.341339 -31.059051 5.345240
        CHANNELS 3 Zrotation Xrotation Yrotation
        JOINT FootRight
        {
          OFFSET 12.885796 -3.907311 -7.599426
          CHANNELS 3 Zrotation Xrotation Yrotation
          End Site
          {
            OFFSET 0 0 0
          }
        }
      }
    }
  }
}
MOTION
Frames: 14
Frame Time: 0.033333
-109.250693 67.314014 336.593749 5.246965 1.774735 -65.872602 -0.063225 1.421561 65.948303 -0.230293 -0.202756 0.204197 10.046234 -8.285961 -2.642950 0.000000 0.000000 0.000000 1.211285 -0.159166 -4.134853 3.852868 -4.036217 2.313230 -17.362595 -14.798776 -3.211746 29.239353 22.198869 -3.867347 0.000000 0.000000 0.000000 0.000000 0.000000 0.000000 -8.123717 0.103495 -0.639317 6.182136 9.384476 0.231123 35.469372 20.356431 3.999143 -56.011443 -37.163599 -19.587031 0.000000 0.000000 0.000000 0.000000 0.000000 0.000000 -7.716767 -5.069129 63.514283 -12.636838 0.327630 -1.327434 16.279131 -7.260921 0.275564 0.000000 0.000000 0.000000 14.187589 -1.270891 67.361330 -9.976047 20.332467 -0.884363 -0.685783 -8.335055 3.786290 0.000000 0.000000 0.000000
-110.601296 66.637140 335.556982 6.947999 1.147357 -62.869574 -0.144833 1.254931 63.004569 -0.270065 -0.197151 0.260589 12.970272 -9.727898 -3.041400 0.000000 0.000000 0.000000 1.738392 0.202983 -5.183112 4.383640 -5.297711 2.866737 -20.840825 -13.867087 -2.433022 32.906035 21.247494 -5.109047 0.000000 0.000000 0.000000 0.000000 0.000000 0.000000 -9.417965 0.647105 -0.719618 6.131484 9.074488 0.192159 34.822907 24.615675 2.025889 -54.174171 -42.284041 -25.998863 0.000000 0.000000 0.000000 0.000000 0.000000 0.000000 -10.367207 -6.843523 60.216823 -12.299503 0.068385 -1.559762 17.353063 -7.362444 0.310804 0.000000 0.000000 0.000000 16.404657 -2.614733 65.202901 -12.879003 24.473639 -0.631076 0.914229 -9.318429 2.819799 0.000000 0.000000 0.000000
-112.229236 65.955642 334.423261 8.486296 0.553403 -59.699804 -0.176901 1.089793 59.912686 -0.282522 -0.217224 0.317729 14.857333 -10.948985 -3.082829 0.000000 0.000000 0.000000 1.502464 0.527250 -5.819455 4.776988 -5.663558 3.140317 -20.709329 -13.701138 -1.971960 30.625801 21.956640 -4.598831 0.000000 0.000000 0.000000 0.000000 0.000000 0.000000 -10.744763 1.291310 -0.785890 5.955887 9.116373 0.219889 33.424916 29.907156 -0.362453 -52.756451 -47.073275 -29.816287 0.000000 0.000000 0.000000 0.000000 0.000000 0.000000 -12.593366 -8.487355 56.972613 -10.371397 0.197545 -1.641062 16.670039 -7.185410 0.570657 0.000000 0.000000 0.000000 16.608689 -3.903168 62.476177 -13.145911 24.216853 -0.300857 0.536613 -8.501257 -0.850917 0.000000 0.000000 0.000000
-114.137029 65.513045 333.342585 9.524734 0.080433 -56.786872 -0.178900 0.943253 57.073131 -0.252566 -0.250849 0.362466 16.574211 -12.295307 -2.693263 0.000000 0.000000 0.000000 1.345877 0.348559 -6.155682 4.349567 -4.822609 3.239925 -18.348062 -14.584427 -2.069749 26.527291 25.442268 -3.504422 0.000000 0.000000 0.000000 0.000000 0.000000 0.000000 -11.608457 1.858026 -0.809445 5.698426 9.230649 0.250497 28.771087 36.584057 -3.194199 -43.052438 -50.011124 -28.356721 0.000000 0.000000 0.000000 0.000000 0.000000 0.000000 -13.603025 -9.452450 54.310078 -8.035675 1.041261 -1.627548 14.809356 -6.978215 1.062301 0.000000 0.000000 0.000000 17.433698 -4.487746 59.832863 -13.661032 24.316200 0.112846 -1.438304 -7.120222 0.651367 0.000000 0.000000 0.000000
-116.017392 65.337854 332.337348 10.516621 -0.335769 -54.498050 -0.022556 0.935483 54.874647 -0.303977 -0.235626 0.401498 16.969281 -13.330420 -2.059295 0.000000 0.000000 0.000000 0.505481 0.930639 -6.390545 4.257747 -4.953215 3.327025 -14.845243 -14.344507 -1.797763 22.404607 28.671905 -2.316823 0.000000 0.000000 0.000000 0.000000 0.000000 0.000000 -12.565147 2.383087 -0.834290 5.791049 9.171925 0.226152 24.726208 40.983625 -4.733941 -44.432157 -59.050791 -31.035515 0.000000 0.000000 0.000000 0.000000 0.000000 0.000000 -14.301402 -10.409025 52.329780 -5.798988 1.555867 -1.607585 12.809680 -6.300706 1.437009 0.000000 0.000000 0.000000 17.860408 -4.759406 57.600671 -13.391161 23.912875 0.435297 -4.799494 -7.503925 -2.476892 0.000000 0.000000 0.000000
-118.112556 65.327801 331.555137 10.910055 -0.689293 -53.740811 0.120145 0.936586 54.186591 -0.332945 -0.231642 0.421602 17.329757 -14.423583 -1.038550 0.000000 0.000000 0.000000 -0.881598 -0.575503 -5.560366 3.979060 -1.520691 2.421243 -10.987040 -16.100311 -2.249646 15.096786 31.548930 0.399281 0.000000 0.000000 0.000000 0.000000 0.000000 0.000000 -12.970827 2.841534 -0.820639 5.769316 9.209290 0.221538 21.594998 42.871578 -5.133517 -86.528209 -64.055636 -42.379299 0.000000 0.000000 0.000000 0.000000 0.000000 0.000000 -13.519664 -10.398587 52.001225 -4.660971 1.918193 -1.461468 10.325389 -5.455906 2.201141 0.000000 0.000000 0.000000 18.111574 -3.844932 56.362514 -13.569370 22.930051 0.935936 -6.541105 -7.960514 -7.420722 0.000000 0.000000 0.000000
-120.263367 65.486451 331.084164 10.778187 -0.945406 -54.519451 0.334349 1.026797 55.009849 -0.311794 -0.229886 0.429848 17.055515 -14.898617 -0.251841 0.000000 0.000000 0.000000 -3.299821 -1.245427 -4.248982 3.578772 1.156062 1.442127 -7.172134 -16.229714 -2.541826 9.249208 31.711102 2.913662 0.000000 0.000000 0.000000 0.000000 0.000000 0.000000 -13.049588 4.206401 -0.764586 5.842658 8.530427 0.289975 21.639405 47.089738 -6.668712 -136.333229 -63.767975 -82.649895 0.000000 0.000000 0.000000 0.000000 0.000000 0.000000 -11.809763 -9.821702 53.194785 -4.598276 1.949954 -1.229477 8.795104 -4.554031 1.776267 0.000000 0.000000 0.000000 18.069196 -2.035007 56.258556 -13.510303 21.530542 1.420566 -6.966280 -8.622311 -14.170624 0.000000 0.000000 0.000000
-122.384246 65.476443 330.579821 10.606226 -1.259637 -55.094150 0.315249 1.065774 55.609940 -0.320284 -0.207882 0.423919 17.193743 -15.240321 0.281313 0.000000 0.000000 0.000000 -5.648111 -1.607576 -2.931014 2.978843 2.990254 0.680541 -5.079876 -14.797712 -2.666173 5.380869 27.912991 4.407541 0.000000 0.000000 0.000000 0.000000 0.000000 0.000000 -12.744465 4.136205 -0.734627 5.722277 8.775767 0.243503 23.504986 48.804584 -7.678378 -155.984458 -57.607093 -94.339810 0.000000 0.000000 0.000000 0.000000 0.000000 0.000000 -10.708906 -8.973051 53.983756 -4.648700 1.533001 -0.954301 7.949510 -3.147568 2.062036 0.000000 0.000000 0.000000 18.629992 -0.375406 56.132724 -13.606172 21.369888 1.764765 0.367721 -7.062065 -20.033127 0.000000 0.000000 0.000000
-124.196654 65.548782 330.275860 10.098133 -1.401007 -55.678115 0.366290 1.179167 56.187463 -0.311870 -0.191155 0.409445 17.748502 -15.781200 0.893320 0.000000 0.000000 0.000000 -8.320920 -1.591796 -1.453975 1.169957 4.005334 0.223462 -3.522686 -12.499293 -2.968957 2.670309 21.795039 5.014129 0.000000 0.000000 0.000000 0.000000 0.000000 0.000000 -12.593203 2.717525 -0.752525 5.856271 9.933710 0.154133 27.174671 49.059378 -8.509958 -164.721825 -53.513507 -98.498344 0.000000 0.000000 0.000000 0.000000 0.000000 0.000000 -9.509620 -7.341764 54.546569 -5.545289 0.642193 -0.545189 7.302310 -2.169950 1.986388 0.000000 0.000000 0.000000 19.084500 0.755050 56.276965 -14.342170 21.360246 2.002957 8.388702 -5.775911 -23.374725 0.000000 0.000000 0.000000
-125.914420 65.396828 330.015145 9.886471 -1.712660 -55.313885 0.301621 1.138060 55.841098 -0.337893 -0.168334 0.397364 18.016251 -15.849176 1.141360 0.000000 0.000000 0.000000 -10.313056 -1.931195 -0.246912 -1.796430 5.390155 0.241116 -3.754584 -9.731793 -3.185271 0.474530 12.851675 4.172247 0.000000 0.000000 0.000000 0.000000 0.000000 0.000000 -12.376987 1.129714 -0.768757 5.836075 11.223482 0.030494 24.102476 45.205992 -6.388695 -166.765307 -55.924132 -103.017842 0.000000 0.000000 0.000000 0.000000 0.000000 0.000000 -9.041031 -5.617258 54.014951 -6.174996 -0.303634 -0.117250 6.507822 -1.449469 1.893348 0.000000 0.000000 0.000000 18.684253 0.847116 55.843963 -14.669691 20.550478 2.157561 22.089330 -3.923212 -29.353927 0.000000 0.000000 0.000000
-127.252789 65.329384 329.951857 9.620943 -2.008306 -55.229966 0.279463 1.125896 55.773207 -0.340337 -0.169219 0.389874 18.116330 -15.598087 1.109024 0.000000 0.000000 0.000000 -11.981517 -1.973072 0.755845 -5.252647 6.087818 0.546635 -7.215326 -7.009736 -3.402310 2.685847 4.122678 1.543706 0.000000 0.000000 0.000000 0.000000 0.000000 0.000000 -11.999401 -0.367111 -0.772574 5.631521 12.385616 -0.097322 13.906038 34.292398 -2.271207 -161.055576 -66.932924 -107.511263 0.000000 0.000000 0.000000 0.000000 0.000000 0.000000 -9.158532 -3.847990 53.563188 -6.372976 -1.511143 0.335485 3.894116 -2.464504 1.534189 0.000000 0.000000 0.000000 18.128833 0.873150 55.750639 -16.249367 19.392232 2.474748 29.531445 -0.887846 -28.794117 0.000000 0.000000 0.000000
-128.330556 65.135951 329.873465 9.324171 -2.231095 -54.504312 0.259878 1.082610 55.053872 -0.397477 -0.154096 0.374415 18.283486 -15.002663 0.683840 0.000000 0.000000 0.000000 -13.344640 -1.958468 1.650507 -7.351846 5.855475 0.449766 -14.132965 -2.960026 -2.362456 6.786919 -5.399346 -2.638179 0.000000 0.000000 0.000000 0.000000 0.000000 0.000000 -11.378592 -1.902335 -0.764943 5.317153 13.522256 -0.223126 11.171809 26.527622 -0.759653 -157.537149 -72.622115 -109.724951 0.000000 0.000000 0.000000 0.000000 0.000000 0.000000 -8.219981 -1.930656 52.669095 -8.790119 -2.161629 0.630744 6.870258 -0.321423 1.307583 0.000000 0.000000 0.000000 17.692665 0.369326 55.244645 -18.630344 18.679161 2.726854 33.868074 2.862834 -24.896304 0.000000 0.000000 0.000000
-129.077785 65.026116 329.776167 9.364532 -2.447217 -54.584095 0.253288 1.038336 55.159594 -0.429921 -0.163150 0.376607 17.697741 -14.449068 0.472824 0.000000 0.000000 0.000000 -14.855748 -1.888301 2.430320 -10.315900 5.867306 0.682881 -18.339837 -0.923281 -1.848761 7.457041 -9.114334 -5.008391 0.000000 0.000000 0.000000 0.000000 0.000000 0.000000 -10.917112 -2.836910 -0.737178 4.813373 14.159626 -0.314413 12.242219 22.995682 -0.052650 -146.430394 -75.883030 -99.567412 0.000000 0.000000 0.000000 0.000000 0.000000 0.000000 -8.172475 -1.511231 52.707676 -9.247971 -2.879642 0.809951 8.740380 1.651766 1.001197 0.000000 0.000000 0.000000 16.657985 -0.634046 55.821731 -18.917334 17.962420 2.530716 36.461246 3.438274 -25.863279 0.000000 0.000000 0.000000
-129.663417 65.090216 329.717288 9.324954 -2.605348 -55.419794 0.251553 1.040473 56.010539 -0.428210 -0.173056 0.378738 17.279154 -14.014784 0.295335 0.000000 0.000000 0.000000 -15.441034 -1.971947 2.781312 -13.088981 5.792380 1.085484 -20.294061 0.106679 -1.582896 8.942587 -11.388966 -6.749145 0.000000 0.000000 0.000000 0.000000 0.000000 0.000000 -10.274329 -3.093719 -0.679115 4.163492 14.162755 -0.362765 14.801468 22.716562 0.202584 -143.193554 -75.599074 -98.367919 0.000000 0.000000 0.000000 0.000000 0.000000 0.000000 -8.145319 -1.340040 53.521911 -9.472637 -3.532070 0.949652 10.133553 3.137642 0.511851 0.000000 0.000000 0.000000 15.941624 -1.370807 57.110376 -21.236964 19.031889 2.425669 33.424311 3.348189 -20.017395 0.000000 0.000000 0.000000
